<?xml version="1.0" encoding="utf-8"?>
<!-- Generator: Adobe Illustrator 23.0.6, SVG Export Plug-In . SVG Version: 6.00 Build 0)  -->
<svg version="1.1" id="レイヤー_1" xmlns="http://www.w3.org/2000/svg" xmlns:xlink="http://www.w3.org/1999/xlink" x="0px"
	 y="0px" viewBox="0 0 600 98.8" style="enable-background:new 0 0 600 98.8;" xml:space="preserve">
<style type="text/css">
	.st0{fill:#3A9ADF;}
</style>
<g>
	<path class="st0" d="M109.2,49.3c0-11.2-9.1-20.3-20.3-20.3H80c-11.2,0-20.3,9.1-20.3,20.3h14.9c0-3,2.4-5.4,5.4-5.4h8.9
		c3,0,5.4,2.4,5.4,5.4v8.9H80l0,0c-11.2,0-20.3,9.1-20.3,20.3c0,11.2,9.1,20.3,20.3,20.3v0h14.4v0h14.9V49.3z M94.3,84H80
		c-3,0-5.4-2.4-5.4-5.4l0,0c0-3,2.4-5.4,5.4-5.4h14.4V84z"/>
	<path class="st0" d="M139.6,29c-11.2,0-20.3,9.1-20.3,20.3v49.5h14.9V49.3c0-3,2.4-5.4,5.4-5.4h8.9V29H139.6z"/>
	<path class="st0" d="M446.4,49.3c0-11.2-9.1-20.3-20.3-20.3h-8.9c-11.2,0-20.3,9.1-20.3,20.3v29.2h0c0,11.2,9.1,20.3,20.3,20.3
		h29.2V84h-29.2v0c-3,0-5.4-2.4-5.4-5.4l0,0V49.3c0-3,2.4-5.4,5.4-5.4h8.9c3,0,5.4,2.4,5.4,5.4v7.2h14.9V49.3L446.4,49.3z"/>
	<path class="st0" d="M49.5,56.5v-7.2c0-11.2-9.1-20.3-20.3-20.3h-8.9C9.1,29,0,38.1,0,49.3v29.2h0c0,11.2,9.1,20.3,20.3,20.3h29.2
		V84H20.3v0c-3,0-5.4-2.4-5.4-5.4l0,0V49.3c0-3,2.4-5.4,5.4-5.4h8.9c3,0,5.4,2.4,5.4,5.4v7.2H49.5z"/>
	<path class="st0" d="M153.6,78.5L153.6,78.5c0,11.2,9.1,20.3,20.3,20.3v0h29.2V84h-29.2c-3,0-5.4-2.4-5.4-5.4h0v-7.2h34.7V56.5
		v-7.2c0-11.2-9.1-20.3-20.3-20.3h-8.9c-11.2,0-20.3,9.1-20.3,20.3V78.5z M168.5,56.5v-7.2c0-3,2.4-5.4,5.4-5.4h8.9
		c3,0,5.4,2.4,5.4,5.4v7.2H168.5z"/>
	<path class="st0" d="M262.8,71.4V56.5v-7.2c0-11.2-9.1-20.3-20.3-20.3h-8.9c-11.2,0-20.3,9.1-20.3,20.3v29.2l0,0
		c0,11.2,9.1,20.3,20.3,20.3h29.2V84h-29.2v0c-3,0-5.4-2.4-5.4-5.4h0v-7.2H262.8z M228.1,56.5v-7.2c0-3,2.4-5.4,5.4-5.4h8.9
		c3,0,5.4,2.4,5.4,5.4v7.2H228.1z"/>
	<path class="st0" d="M555.6,71.4V56.5v-7.2c0-11.2-9.1-20.3-20.3-20.3h-8.9c-11.2,0-20.3,9.1-20.3,20.3v29.2l0,0
		c0,11.2,9.1,20.3,20.3,20.3l0,0h29.2V84h-29.2v0c-3,0-5.4-2.4-5.4-5.4h0v-7.2H555.6z M521,56.5v-7.2c0-3,2.4-5.4,5.4-5.4h8.9
		c3,0,5.4,2.4,5.4,5.4v7.2H521z"/>
	<path class="st0" d="M272.9,98.8h14.9V49.3c0-3,2.4-5.4,5.4-5.4h8.9V29h-8.9c-11.2,0-20.3,9.1-20.3,20.3V98.8z"/>
	<rect x="371.9" y="29" class="st0" width="14.9" height="14.9"/>
	<rect x="371.9" y="54.4" class="st0" width="14.9" height="44.4"/>
	<path class="st0" d="M347.4,43.9h14.4V29h-14.4V14.2h-14.9V29h-10.1v14.9h10.1v34.7l0,0c0,11.2,9.1,20.3,20.3,20.3h8.9V84h-8.9v0
		c-3,0-5.4-2.4-5.4-5.4l0,0V43.9z"/>
	<path class="st0" d="M585.7,43.9H600V29h-14.4v0h0V14.2h-14.9V29v0h-10.1v14.9h10.1v34.7c0,11.2,9.1,20.3,20.3,20.3h8.9V84h-8.9v0
		c-3,0-5.4-2.4-5.4-5.4h0V43.9z"/>
	<polygon class="st0" points="506.1,29 506.1,29 506.1,29 485.1,29 471.4,42.7 471.4,0.3 456.6,0.3 456.6,98.8 471.4,98.8 
		471.4,85.2 485.1,98.8 506.1,98.8 471.4,64.2 471.4,63.7 	"/>
</g>
</svg>
