<svg xmlns="http://www.w3.org/2000/svg" xmlns:xlink="http://www.w3.org/1999/xlink" viewBox="0 0 112.3 34.94"><defs><style>.cls-1{fill:none;}.cls-2{clip-path:url(#clip-path);}.cls-3{fill:#5eb8be;}.cls-4{fill:#040000;}</style><clipPath id="clip-path" transform="translate(-430.07 -244.98)"><rect class="cls-1" width="612.28" height="858.9"/></clipPath></defs><g id="レイヤー_2" data-name="レイヤー 2"><g id="レイヤー_1-2" data-name="レイヤー 1"><g class="cls-2"><path class="cls-3" d="M455.56,245c11.67,0,25.67,6.77,26.15,20.77s-9.57,14.71-11.44,13.07-3.73-4.43-7.24-4.2-5.11,1.52-8.76,1.65-3.14-1.43-7-1.31-6,3.14-6.79,4.31-4.3,1-7.44-2.87-3-8.88-2.87-10.84S432.72,245,455.56,245" transform="translate(-430.07 -244.98)"/><path class="cls-4" d="M489.49,261.06v-9.34h3.75c4,0,5.64,1.89,5.64,4.67s-1.66,4.67-5.64,4.67Zm.65-8.61v7.87h3.1c3.55,0,5-1.57,5-3.93s-1.43-3.94-5-3.94Z" transform="translate(-430.07 -244.98)"/><path class="cls-4" d="M501,251.61h.65v1.6H501Zm0,9.45v-7l.65-.1v7.11Z" transform="translate(-430.07 -244.98)"/><path class="cls-4" d="M508.92,256.74V256h5.21v.68c0,3.45-2.35,4.59-5.21,4.59-3.44,0-5.19-2.09-5.19-4.87s1.66-4.87,5.64-4.87a10.19,10.19,0,0,1,3.89.75l-.15.69a10.08,10.08,0,0,0-3.74-.71c-3.54,0-5,1.76-5,4.14s1.53,4.13,4.53,4.13c2.64,0,4.57-1,4.57-3.61v-.17Z" transform="translate(-430.07 -244.98)"/><path class="cls-4" d="M530.05,251.72h.64v5.61c0,2.76-1.53,3.93-4.59,3.93s-4.59-1.17-4.59-3.93v-5.61h.65v5.61c0,2.33,1.42,3.19,3.94,3.19s3.95-.86,3.95-3.19Z" transform="translate(-430.07 -244.98)"/><path class="cls-4" d="M532.9,261.06v-9.34h5.73a3.31,3.31,0,0,1,0,6.61h-5.08v2.73Zm.65-8.61v5.13h5.12a2.57,2.57,0,1,0,0-5.13Z" transform="translate(-430.07 -244.98)"/><path class="cls-4" d="M496.92,275.08a7.17,7.17,0,0,1-3.24.75c-3.31,0-4.69-2.1-4.69-4.88s1.38-4.87,4.69-4.87a7.17,7.17,0,0,1,3.24.75l-.13.71a7.13,7.13,0,0,0-3.11-.73c-2.95,0-4.15,1.77-4.15,4.14s1.2,4.13,4.15,4.13a7.18,7.18,0,0,0,3.11-.71Z" transform="translate(-430.07 -244.98)"/><path class="cls-4" d="M506.73,275.62h-.63L505,273.2h-5.44l-1.08,2.42h-.63l4.13-9.34h.61Zm-6.48-4-.38.83h4.84l-.37-.83-2-4.65Z" transform="translate(-430.07 -244.98)"/><path class="cls-4" d="M507.94,266.28h5c1.37,0,2.46.76,2.46,3s-1.13,3-2.48,3h-.74l3.48,3.36h-.85l-3.41-3.33h-3v3.33h-.53Zm5,5.26c1.06,0,1.92-.56,1.92-2.26S514.07,267,513,267h-4.53v4.53Z" transform="translate(-430.07 -244.98)"/><polygon class="cls-4" points="87.02 30.65 87.02 21.3 93.92 21.3 93.92 22.04 87.56 22.04 87.56 25.47 93.38 25.47 93.38 26.21 87.56 26.21 87.56 29.9 94.11 29.9 94.11 30.65 87.02 30.65"/><polygon class="cls-4" points="95.78 30.65 95.78 21.3 102.68 21.3 102.68 22.04 96.31 22.04 96.31 25.47 102.13 25.47 102.13 26.21 96.31 26.21 96.31 29.9 102.86 29.9 102.86 30.65 95.78 30.65"/><path class="cls-4" d="M534.6,266.28h5c1.36,0,2.46.76,2.46,3s-1.13,3-2.49,3h-.73l3.48,3.36h-.86l-3.41-3.33h-3v3.33h-.54Zm5,5.26c1.06,0,1.93-.56,1.93-2.26s-.83-2.27-1.89-2.27h-4.53v4.53Z" transform="translate(-430.07 -244.98)"/></g></g></g></svg>