<svg xmlns="http://www.w3.org/2000/svg" viewBox="0 0 655 76.94"><defs><style>.cls-1{fill:#00abeb;}</style></defs><title>logo_shinsotsu</title><g id="レイヤー_2" data-name="レイヤー 2"><g id="LOGODATA"><path d="M413.8,19.94c-.65-1.92-1.64-5-2-6.13l-.11-.34a2.22,2.22,0,0,0-2.24-1.57h-6.89a1.34,1.34,0,0,0-1.23.53,1.38,1.38,0,0,0-.17,1.27c.16.53,1.56,4.7,2.33,6.83A2.39,2.39,0,0,0,406,22.08h6.14c1,0,1.36-.3,1.56-.58a1.62,1.62,0,0,0,.09-1.55"/><path d="M398.12,13.42a2.19,2.19,0,0,0-2.22-1.5H389a1.34,1.34,0,0,0-1.22.52,1.41,1.41,0,0,0-.17,1.29c.18.56,1.57,4.73,2.32,6.82a2.37,2.37,0,0,0,2.53,1.55h6.18a1.77,1.77,0,0,0,1.54-.57A1.59,1.59,0,0,0,400.3,20c-.76-2.27-2.05-6.14-2.18-6.55"/><path class="cls-1" d="M134.36,68A8.34,8.34,0,1,1,126,59.67,8.34,8.34,0,0,1,134.36,68"/><path class="cls-1" d="M139.34,8.74A6.18,6.18,0,0,0,135.7.39c-3.45-1.26-6.83.66-8.61,3.82-2.87,5.11-17.76,33.32-20.25,38s-5.64,11.36-8.25,10.34c-2.4-.94-5.23-11.19-6.44-14.11-2.14-5.2-6.49-11.38-13.75-9.81-5.55,1.19-8.71,5.56-13.73,15.2-2.76,5.29-4.49,8.78-7,12.21-5.15,7-8.06-4.52-9.76-10.5-2.29-8-6.46-19.37-15.56-19.36-5.08,0-10.5,3-17.25,13.9C11.16,46.44,2,64.27.59,67.45a6.25,6.25,0,0,0,3.18,8.49c3.38,1.45,6.7-.06,8.69-3.15,6.47-10,8.24-14,11.55-18.59,3.54-4.91,8.36-9.32,12,2.49,2.32,7.43,6.37,19.63,17.28,19.7,6.57,0,13.36-5.62,16.55-11C73.48,59.25,74.38,56,77.12,53c1.4-1.5,3.48-2,5.45,2.32s5.83,17.56,12.84,20.47c9.89,4.1,19.19-15.89,22.4-22.27,2.59-5.14,20.39-42.12,21.53-44.82"/><path d="M219.71,14.42a3,3,0,0,0-2.17-.74h0l-60.12.08a2.06,2.06,0,0,0-1.57.71,2.21,2.21,0,0,0-.52,1.44v7.61a2.08,2.08,0,0,0,2.09,2h.34l43.82-.06h1.78c1.28,0,1.63.23,1.93.62.66.87,0,2.25-.12,2.58-2.89,10.47-9.24,18.56-18.34,23.41l-.51.27-.34-.47c-2.24-3.07-3.92-5.19-5.86-7.64l-.28-.36a3.75,3.75,0,0,0-2.7-1.64H167a1.41,1.41,0,0,0-1.4.88,1.72,1.72,0,0,0,.16,1.59,228.84,228.84,0,0,1,20,30.29A2.51,2.51,0,0,0,188,76.38h11a1.35,1.35,0,0,0,1.23-.8,1.51,1.51,0,0,0,0-1.49,89.4,89.4,0,0,0-6.22-10.29l-.37-.55.54-.38c12.86-9,24.89-20.56,26-46.63a2.42,2.42,0,0,0-.56-1.83"/><path d="M281.52,13.55a2,2,0,0,0-1.63-.7l-10,.05a2.86,2.86,0,0,0-2.38,1.58c-5.7,13.06-22.26,22.93-45,26.73-1.47.29-2.18,1.15-2.2,2.14v7.87a2,2,0,0,0,.66,1.51,2.34,2.34,0,0,0,1.84.56c11-1.34,19.48-3.52,26.17-6.6l1-.44,0,27.93a2.09,2.09,0,0,0,2.16,2.09h8.59a2.07,2.07,0,0,0,2-1.95l-.05-34.06.29-.2c8.6-5.87,16.08-15.47,18.92-24.84a2,2,0,0,0-.36-1.66"/><path d="M327.53,40.77l0-.63,19.21-.05a2.09,2.09,0,0,0,1.47-.63,2.22,2.22,0,0,0,.6-1.41V30.47a2.07,2.07,0,0,0-2.1-2.11H327.66V14.87a2.09,2.09,0,0,0-2.18-2.1H317a2,2,0,0,0-1.52.66,2.1,2.1,0,0,0-.56,1.42l0,13.53-28.82,0a2.12,2.12,0,0,0-1.58.64,2.16,2.16,0,0,0-.59,1.52v7.61a2.07,2.07,0,0,0,2.14,2h.28l28.47-.05,0,.71c-1,16.49-8.92,21.19-23.78,24.23-1.3.31-2,.94-2,2.07V75a1.76,1.76,0,0,0,.66,1.41,2.22,2.22,0,0,0,1.57.5c24.89-3.44,35-13.86,36.31-36.15"/><path d="M412.79,28.86a2.05,2.05,0,0,0-1.36-.56h-.35l-41.69.06,0-13.5a2.11,2.11,0,0,0-.59-1.51,2.19,2.19,0,0,0-1.61-.64h-8a2.08,2.08,0,0,0-2.07,2.1l.07,45.25c0,11.26,4.44,16,16.81,16h1L412.51,76a2.09,2.09,0,0,0,1.94-2V66.27a2.09,2.09,0,0,0-2.07-2.11h0L378,64.2h0c-3.12,0-5.42-.2-6.75-1.29-1.67-1.4-1.83-3.41-1.8-6.56l0-16.27L411.34,40a2.08,2.08,0,0,0,2.1-2.11V30.36a2,2,0,0,0-.64-1.5"/><path class="cls-1" d="M455.65,41.79c.87,0,3.11,0,3.11,2.89s-1.8,3.05-3.33,3.05h-6.28v3.77h5.68c1.36,0,3.33.27,3.33,2.95,0,2.29-1.36,2.95-3.33,2.95H450.3A33.08,33.08,0,0,0,454.61,62c1.91,1.69,2.46,2.18,2.46,3.28a3.51,3.51,0,0,1-3.17,3.38c-1.09,0-2.29-1-4.75-4.58v9.44c0,.93-.05,3.33-2.89,3.33-2.07,0-3.28-.71-3.28-3.33V65.37a51.33,51.33,0,0,1-4.53,5c-1.15,1.09-1.86,1.58-2.84,1.58a3.64,3.64,0,0,1-3.49-3.71c0-1.47.33-1.75,3.44-4.15A31.8,31.8,0,0,0,442,57.4h-5.78c-1.31,0-3.27-.22-3.27-2.89,0-2.13,1.2-3,3.27-3H443V47.74h-7.31c-1.31,0-3.33,0-3.33-2.84s1.64-3.11,3.27-3.11h2.73c-.27-1.85-.93-5.07-1.2-6.38h-1.26a2.4,2.4,0,0,1-2.57-2.73c0-2.57,1.15-3.22,3.06-3.22H443V27.71c0-1.91,1.42-2.62,3-2.62,1.25,0,3.33.22,3.33,2.62v1.75h6.17c.82,0,3.11,0,3.11,2.95,0,1.09-.22,3-2.51,3h-1.2c-.27,1.58-.44,2.24-1.31,6.38Zm-7.8,0a55.09,55.09,0,0,0,1.09-6.38H443c.49,2.57.71,4,1.09,6.38Zm30.61,6.44V73.55c0,2.67-1.26,3.27-3.55,3.27-2.62,0-2.95-1.86-2.95-3.27V48.23h-5.84V51.4c0,10.31-2.4,17.52-4.42,21.17-1.69,3-2.56,3.6-4.15,3.6a3.54,3.54,0,0,1-3.71-3.28c0-.82.27-1.36,1.14-2.67,3.77-5.51,4.75-12.28,4.75-19V34.48c0-2.95,0-4.69,2.46-5.62,1.31-.49,8.24-1.15,9.77-1.37,1.26-.22,7.31-1.53,7.86-1.53a3.35,3.35,0,0,1,3.17,3.6,3,3,0,0,1-2.4,3.06,67.62,67.62,0,0,1-10.92,1.75c-3.22.33-3.55.44-3.55,2.68v4.58H480.7c2.68,0,3.38,1.2,3.38,3.49,0,2.67-1.75,3.11-3.38,3.11Z"/><path class="cls-1" d="M518.7,58.65h18.94c.82,0,3.38,0,3.38,3.11,0,2.67-1.31,3.38-3.38,3.38H518.7v8.46c0,1.47-.33,3.33-3.27,3.33s-4-.76-4-3.33V65.15H492.61c-.87,0-3.38,0-3.38-3.22,0-3.06,2.07-3.27,3.38-3.27h18.83V57.24c0-2.51,2.35-2.78,4.48-2.57a4.13,4.13,0,0,1-1.8-3.11c0-1.26.22-1.42,3.38-4.37a25.38,25.38,0,0,0,5.67-8.08c.66-1.26,1.15-2.18,3-2.18,1.58,0,4,.82,4,2.84,0,.82-.27,1.47-1.36,3.66A28.42,28.42,0,0,0,537,49.87c1.31.76,2,1.36,2,2.73,0,1.75-1.42,4.09-3.76,4.09-3.06,0-9.17-6.27-10.21-7.42a43.43,43.43,0,0,1-5,5.29,3,3,0,0,1-2.07.87,2.38,2.38,0,0,1,.65,1.8Zm18-28.54c.76,0,3.06,0,3.06,3.11,0,2.95-1.91,3.17-3.06,3.17H493.54c-.76,0-3.11,0-3.11-3.11,0-2.89,1.86-3.17,3.11-3.17h17.9V28c0-1.86,1-2.84,3.33-2.84,2.51,0,3.93.49,3.93,2.84v2.13Zm-26,16.54c3,2,3.33,2.24,3.33,3.6A3.92,3.92,0,0,1,510.51,54c-2.13,0-5.19-3.16-7-5.29-1.53,2.24-5.84,8.19-8.79,8.19a4,4,0,0,1-3.82-3.71c0-1.25.16-1.42,3.6-4.64a24.25,24.25,0,0,0,5.84-8.79c.6-1.42,1.09-2.56,3.17-2.56,1.09,0,3.93.49,3.93,2.78a10.82,10.82,0,0,1-.82,2.89A24.68,24.68,0,0,0,510.68,46.65Z"/><path class="cls-1" d="M553.1,44.9a48.41,48.41,0,0,0-3.93-4.26c-2.62-2.56-2.89-2.84-2.89-4.09,0-1.58,1.2-3.27,2.84-3.27a2.47,2.47,0,0,1,1.47.49,55.33,55.33,0,0,0,3.22-5.57c1.15-2.18,1.47-2.84,3.06-2.84s3.66,1.15,3.66,2.73c0,.93-.33,1.64-1.8,4.09A64.25,64.25,0,0,1,555,38a20.45,20.45,0,0,1,1.69,1.86c1.75-2.62,2-3.06,4.75-7.53.71-1.09,1.26-1.64,2.4-1.64,1.53,0,3.66,1.15,3.66,2.84a6.26,6.26,0,0,1-.11.76c-.71,2.35-8.95,12.66-9.82,13.64,1.31-.05,1.36-.05,4.26-.27a15.31,15.31,0,0,1-.82-3.22c0-1.37,1.42-1.86,2.18-1.86,1.42,0,1.91,1,2.78,3.49.65,1.8,2.18,6,2.18,7.48a2.35,2.35,0,0,1-2.57,2.18c-1.47,0-1.91-.87-2.4-2.84-1.37.22-2,.27-3.28.44V74c0,.76,0,2.89-2.67,2.89s-2.62-2.18-2.62-2.89V53.8c-2.46.22-4.91.44-5.57.44s-2.89,0-2.89-3.11c0-2.67,1.47-2.73,4.42-2.84ZM553.15,59a68.84,68.84,0,0,1-1.31,10.59c-.44,2.35-.71,3.55-2.78,3.55-.82,0-2.89-.38-2.89-2.24,0-.44.27-1.69.71-3.93A60.77,60.77,0,0,0,548,59.09c.16-1.42.38-2.51,2.4-2.51C552.61,56.58,553.15,57.56,553.15,59Zm11.73,11.84c-1.91,0-2-.76-2.35-3.44-.22-1.47-1.42-8.57-1.42-9.22,0-1.64,1.69-1.86,2.57-1.86,2,0,2.24,1.37,2.73,4,.33,1.8,1.26,6.93,1.26,8.24C567.67,69.4,567.67,70.88,564.88,70.88Zm6.38-38c-.82,0-3.33,0-3.33-3.06s2.46-3.11,3.33-3.11h19.16c5.18,0,6.38,2.24,6.38,6.28,0,2.29-.49,10.64-2,13.59a5.54,5.54,0,0,1-4.53,3,42.11,42.11,0,0,1-4.37.11c-2,0-4.58,0-4.58-3.38,0-3.06,2.13-3.06,3.49-3.06h3c1.47-.22,1.8-1.91,2-3a46.79,46.79,0,0,0,.44-5.51c0-.76-.05-1.86-1.69-1.86h-5.89a25.26,25.26,0,0,1-6.44,14.46c-.44.44-3.66,3.77-5.95,3.77S567,48.83,567,47.52a3,3,0,0,1,1.75-2.62,14.54,14.54,0,0,0,7.37-12Zm24.5,36.4c0,4.91-2.13,6.33-6.33,6.33H575.69c-4.2,0-6.27-1.47-6.27-6.33V58.16c0-5,2.24-6.33,6.27-6.33h13.75c4.09,0,6.33,1.36,6.33,6.33Zm-6.39-9.55c0-1.2-.54-1.91-1.8-1.91h-10a1.66,1.66,0,0,0-1.86,1.91V67.6a1.63,1.63,0,0,0,1.86,1.86h10c1.2,0,1.8-.6,1.8-1.86Z"/><path class="cls-1" d="M627.39,33.66c-6.33,6.77-17.85,14-20.74,14-2.13,0-3.44-2.07-3.44-4a3.14,3.14,0,0,1,2-3.11c6.44-3.22,9-4.48,14.08-8.84,1.91-1.64,2.67-2.4,4.8-4.53a6.06,6.06,0,0,1,5-2.24c2.78,0,3.82,1,6,3.22,6.49,6.44,12.06,9.55,14.3,10.59.87.44,4,2,4.47,2.29a3.14,3.14,0,0,1,1.2,2.62,3.77,3.77,0,0,1-3.49,4c-3.44,0-15.44-8.24-20.85-14-.82-.93-1.15-1.26-1.64-1.26S628.32,32.68,627.39,33.66Zm-4.91,20c0,9.39-2.29,15-6.82,19.15-1.25,1.09-4.58,3.66-7,3.66A3.79,3.79,0,0,1,605,72.57,3.2,3.2,0,0,1,606.38,70c4.8-2.95,5.73-3.55,7-6,1.75-3.38,2-8.07,2-10.86V47.14c0-1,0-3.38,3.49-3.38s3.55,2.18,3.55,3.38Zm20.3,19.87c0,.87,0,3.38-3.44,3.38-2.73,0-3.77-1-3.77-3.38V47c0-1,.11-3.33,3.38-3.33,2.51,0,3.82.76,3.82,3.33Z"/></g></g></svg>